<?xml version="1.0" encoding="utf-8"?>
<!-- Generator: Adobe Illustrator 17.0.0, SVG Export Plug-In . SVG Version: 6.00 Build 0)  -->
<!DOCTYPE svg PUBLIC "-//W3C//DTD SVG 1.1//EN" "http://www.w3.org/Graphics/SVG/1.1/DTD/svg11.dtd">
<svg version="1.1" id="Layer_1" xmlns="http://www.w3.org/2000/svg" xmlns:xlink="http://www.w3.org/1999/xlink" x="0px" y="0px"
	 width="279px" height="400px" viewBox="0 0 279 400" enable-background="new 0 0 279 400" xml:space="preserve">
<g>
	<g>
		<path fill="#06080A" d="M0,352.138v-0.255c1.188-0.114,2.347-0.593,2.347-2.545v-14.194c0-1.951-1.159-2.432-2.347-2.545v-0.255
			h14.9l0.707,5.853h-0.424c-0.905-3.534-4.1-5.4-7.238-5.4H5.881v8.708H7.21c2.8,0,4.525-0.763,4.751-3.337h0.367v7.126H11.96
			c-0.226-2.574-1.951-3.337-4.751-3.337H5.881v7.38c0,1.952,1.159,2.432,2.347,2.545v0.255H0z"/>
		<path fill="#06080A" d="M27.969,349.197c0,1.866,0.82,2.46,2.234,2.404v0.254l-5.005,0.651l-0.226-0.085v-2.177
			c-1.329,1.64-2.827,2.403-4.382,2.403c-2.008,0-3.252-1.159-3.252-3.449v-6.164c0-1.866-0.962-2.318-2.233-2.262v-0.255
			l5.089-1.498l0.226,0.084v9.077c0,2.262,0.678,3.195,1.979,3.195c0.792,0,1.725-0.537,2.488-1.498v-6.844
			c0-1.866-0.962-2.318-2.233-2.262v-0.255l5.089-1.498l0.226,0.084V349.197z"/>
		<path fill="#06080A" d="M36.173,330.931l0.226,0.085v18.464c0,1.866,1.103,2.318,2.234,2.403v0.255h-7.549v-0.255
			c1.13-0.085,2.233-0.537,2.233-2.403v-14.534c0-1.866-0.962-2.318-2.233-2.262v-0.255L36.173,330.931z"/>
		<path fill="#06080A" d="M44.742,330.931l0.226,0.085v18.464c0,1.866,1.103,2.318,2.234,2.403v0.255h-7.549v-0.255
			c1.13-0.085,2.233-0.537,2.233-2.403v-14.534c0-1.866-0.962-2.318-2.233-2.262v-0.255L44.742,330.931z"/>
		<path fill="#06080A" d="M53.453,352.138v-0.255c1.188-0.114,2.347-0.593,2.347-2.545v-14.194c0-1.951-1.159-2.432-2.347-2.545
			v-0.255h14.9l0.707,5.853h-0.424c-0.905-3.534-4.1-5.4-7.238-5.4h-2.064v8.708h1.329c2.8,0,4.525-0.763,4.751-3.337h0.367v7.126
			h-0.367c-0.226-2.574-1.951-3.337-4.751-3.337h-1.329v7.38c0,1.952,1.159,2.432,2.347,2.545v0.255H53.453z"/>
		<path fill="#06080A" d="M75.201,330.931l0.226,0.085v18.464c0,1.866,1.103,2.318,2.234,2.403v0.255h-7.549v-0.255
			c1.13-0.085,2.233-0.537,2.233-2.403v-14.534c0-1.866-0.962-2.318-2.233-2.262v-0.255L75.201,330.931z"/>
		<path fill="#06080A" d="M79.02,345.833c0-3.845,2.912-6.927,6.447-6.927c3.845,0,6.447,2.969,6.447,6.814
			c0,3.845-2.77,6.927-6.447,6.927C81.763,352.646,79.02,349.678,79.02,345.833z M85.467,352.251c1.471,0,2.885-1.47,2.885-6.418
			c0-3.845-1.131-6.56-2.997-6.532c-1.442,0.029-2.827,1.611-2.827,6.418C82.527,349.508,83.657,352.251,85.467,352.251z"/>
		<path fill="#06080A" d="M93.614,345.833c0-3.845,2.912-6.927,6.447-6.927c3.845,0,6.447,2.969,6.447,6.814
			c0,3.845-2.77,6.927-6.447,6.927C96.356,352.646,93.614,349.678,93.614,345.833z M100.06,352.251c1.471,0,2.885-1.47,2.885-6.418
			c0-3.845-1.131-6.56-2.997-6.532c-1.442,0.029-2.827,1.611-2.827,6.418C97.12,349.508,98.251,352.251,100.06,352.251z"/>
		<path fill="#06080A" d="M113.043,339.019l0.226,0.084v3.337c1.074-2.149,2.573-3.591,3.845-3.591c1.046,0,1.725,0.792,1.725,1.64
			c0,0.904-0.566,1.753-1.499,1.753c-1.103,0-1.526-1.131-2.262-1.131c-0.622,0-1.273,0.819-1.753,1.951v6.277
			c0,1.867,0.736,2.489,1.866,2.574v0.226h-7.181v-0.255c1.13-0.085,2.233-0.537,2.233-2.403v-6.448c0-1.81-0.933-2.347-2.262-2.262
			v-0.255L113.043,339.019z"/>
		<path fill="#06080A" d="M133.008,332.345v0.255c-1.188,0.114-2.347,0.594-2.347,2.545v16.541h2.347
			c3.138,0,6.616-1.867,7.521-5.401h0.423l-0.989,5.853H124.78v-0.255c1.188-0.114,2.347-0.593,2.347-2.545v-14.194
			c0-1.951-1.159-2.432-2.347-2.545v-0.255H133.008z"/>
		<path fill="#06080A" d="M153.992,349.197c0,1.866,0.82,2.46,2.234,2.404v0.254l-5.005,0.651l-0.226-0.085v-2.177
			c-1.329,1.64-2.827,2.403-4.382,2.403c-2.008,0-3.252-1.159-3.252-3.449v-6.164c0-1.866-0.962-2.318-2.233-2.262v-0.255
			l5.089-1.498l0.226,0.084v9.077c0,2.262,0.678,3.195,1.979,3.195c0.792,0,1.725-0.537,2.488-1.498v-6.844
			c0-1.866-0.962-2.318-2.233-2.262v-0.255l5.089-1.498l0.226,0.084V349.197z"/>
		<path fill="#06080A" d="M164.599,344.616l1.527-2.121c1.018-1.441,0.763-2.544-0.678-2.658v-0.226h4.778v0.226
			c-1.584,0.114-2.574,1.357-3.592,2.771l-1.752,2.375l3.449,4.637c1.215,1.64,1.526,2.064,2.46,2.29v0.226h-6.589v-0.226
			c1.075-0.057,1.697-0.736,0.537-2.319l-2.121-2.856l-1.781,2.516c-0.962,1.357-0.593,2.545,1.244,2.659v0.226h-5.485v-0.226
			c1.64-0.114,2.715-1.357,3.733-2.771l2.007-2.8l-3.364-4.524c-1.131-1.527-1.499-1.781-2.262-1.979v-0.226h6.588v0.226
			c-1.216,0.085-1.499,0.933-0.481,2.319L164.599,344.616z"/>
		<path fill="#06080A" d="M183.462,349.197c0,1.866,0.82,2.46,2.234,2.404v0.254l-5.005,0.651l-0.226-0.085v-2.177
			c-1.329,1.64-2.827,2.403-4.382,2.403c-2.008,0-3.252-1.159-3.252-3.449v-6.164c0-1.866-0.962-2.318-2.233-2.262v-0.255
			l5.089-1.498l0.226,0.084v9.077c0,2.262,0.678,3.195,1.979,3.195c0.792,0,1.725-0.537,2.488-1.498v-6.844
			c0-1.866-0.962-2.318-2.233-2.262v-0.255l5.089-1.498l0.226,0.084V349.197z"/>
		<path fill="#06080A" d="M191.751,339.019l0.226,0.084v3.337c1.074-2.149,2.573-3.591,3.845-3.591c1.046,0,1.725,0.792,1.725,1.64
			c0,0.904-0.566,1.753-1.499,1.753c-1.103,0-1.526-1.131-2.262-1.131c-0.622,0-1.273,0.819-1.753,1.951v6.277
			c0,1.867,0.736,2.489,1.866,2.574v0.226h-7.181v-0.255c1.13-0.085,2.233-0.537,2.233-2.403v-6.448c0-1.81-0.933-2.347-2.262-2.262
			v-0.255L191.751,339.019z"/>
		<path fill="#06080A" d="M204.222,355.22c-0.989,2.262-2.743,3.506-4.326,3.506c-1.244,0-2.347-0.82-2.347-2.205
			c0-1.074,0.763-1.696,1.555-1.696c1.838,0,1.556,2.459,2.63,2.459c0.707,0,1.555-1.103,2.064-2.29l0.989-2.262l-4.382-10.178
			c-0.707-1.641-1.244-2.63-2.375-2.715v-0.226h7.238v0.226c-1.442,0.085-2.149,1.131-1.414,2.912l2.573,6.334l2.856-6.589
			c0.678-1.611,0.029-2.544-1.866-2.658v-0.226h5.089v0.226c-1.584,0.114-2.036,1.188-2.799,2.912L204.222,355.22z"/>
		<path fill="#06080A" d="M226.479,332.345v0.255c-1.188,0.114-2.347,0.594-2.347,2.545v16.541h2.347
			c3.138,0,6.616-1.867,7.522-5.401h0.424l-0.989,5.853h-15.184v-0.255c1.188-0.114,2.347-0.593,2.347-2.545v-14.194
			c0-1.951-1.159-2.432-2.347-2.545v-0.255H226.479z"/>
		<path fill="#06080A" d="M235.645,345.833c0-3.845,2.912-6.927,6.447-6.927c3.845,0,6.447,2.969,6.447,6.814
			c0,3.845-2.77,6.927-6.447,6.927C238.388,352.646,235.645,349.678,235.645,345.833z M242.092,352.251
			c1.471,0,2.885-1.47,2.885-6.418c0-3.845-1.131-6.56-2.997-6.532c-1.442,0.029-2.827,1.611-2.827,6.418
			C239.152,349.508,240.282,352.251,242.092,352.251z"/>
		<path fill="#06080A" d="M259.683,334.239c0,0.99-0.651,1.697-1.47,1.697c-0.678,0-1.47-0.566-1.47-1.499
			c0-0.566,0.282-1.075,0.282-1.499c0-0.34-0.282-0.537-0.622-0.537c-0.763,0-1.499,0.848-1.499,2.997
			c0,1.244,0.255,2.827,0.255,4.156v0.056h3.054v0.452h-3.054v9.416c0,1.866,1.103,2.318,2.233,2.403v0.255h-7.549v-0.255
			c1.131-0.085,2.234-0.537,2.234-2.403v-9.416h-2.234v-0.452h2.234v-1.838c0-4.297,2.46-5.825,4.693-5.825
			C258.58,331.949,259.683,332.967,259.683,334.239z"/>
		<path fill="#06080A" d="M264.21,340.064v8.256c0,1.782,0.537,2.432,1.47,2.432c0.678,0,1.385-0.367,2.036-1.3l0.255,0.17
			c-1.301,2.233-2.884,3.025-4.156,3.025c-1.668,0-2.686-1.3-2.686-2.912v-9.67h-1.866v-0.282c2.036-0.651,3.986-3.422,4.552-5.684
			h0.396v5.514h3.421v0.452H264.21z"/>
		<path fill="#06080A" d="M276.625,349.989c0-2.121-3.365-2.403-5.429-3.986c-0.877-0.679-1.584-1.584-1.584-2.97
			c0-2.092,1.329-4.128,4.467-4.128c1.923,0,3.167,0.425,4.411,1.159l-0.904,2.827l-0.198-0.028c-0.34-2.29-1.895-3.478-3.619-3.478
			c-1.357,0-2.29,0.734-2.29,2.007c0,2.432,3.76,2.63,5.966,4.27c0.877,0.651,1.556,1.555,1.556,2.912
			c0,1.696-1.584,4.071-4.948,4.071c-1.499,0-3.139-0.396-4.751-1.215l0.962-3.365l0.197,0.056c0.226,2.121,1.131,4.043,3.619,4.043
			C276.03,352.166,276.625,351.176,276.625,349.989z"/>
		<path fill="#06080A" d="M85.525,385.274c0,1.979,0.901,3.343,2.639,3.343c0.835,0,1.802-0.352,2.573-1.342l0.154,0.088
			c-1.078,1.87-2.178,2.882-3.761,2.882c-2.354,0-3.628-1.693-3.628-4.091c0-3.848,2.858-6.621,5.344-6.621
			c2.111,0,2.969,1.078,2.969,1.847c0,0.749-0.637,1.342-1.297,1.342s-1.012-0.44-1.144-0.99c-0.198-0.813,0-1.825-0.99-1.825
			C87.174,379.907,85.525,382.657,85.525,385.274z"/>
		<path fill="#06080A" d="M93.224,385.889c0-3.496,2.662-6.357,5.41-6.357c2.463,0,4.047,1.847,4.047,4.356
			c0,3.474-2.727,6.356-5.521,6.356C94.851,390.244,93.224,388.397,93.224,385.889z M97.095,389.826
			c2.287,0,3.167-4.816,3.167-6.641c0-1.892-0.505-3.212-1.54-3.212c-2.09,0-3.189,4.135-3.189,6.643
			C95.534,388.463,96.039,389.826,97.095,389.826z"/>
		<path fill="#06080A" d="M104.333,389.848l1.825-7.082c0.065-0.242,0.11-0.506,0.11-0.725c0.021-0.858-0.528-1.078-1.32-1.034
			l0.043-0.197l4.047-1.166l0.154,0.065l-0.637,2.42c0.989-1.365,2.506-2.596,3.914-2.596c1.386,0,1.914,1.101,1.672,2.442
			c1.078-1.298,2.618-2.442,4.004-2.442c1.385,0,1.847,1.277,1.451,2.772l-1.539,5.608c-0.242,0.902,0.131,1.232,0.44,1.232
			c0.373,0,0.857-0.198,1.539-0.857l0.133,0.131c-1.21,1.254-2.266,1.759-3.167,1.759c-0.99,0-1.584-0.968-1.166-2.529l1.32-4.992
			c0.308-1.189,0.153-1.958-0.66-1.958c-0.725,0-1.628,0.681-2.463,1.782l-1.891,7.367h-2.331l1.847-7.191
			c0.308-1.21,0.132-1.958-0.813-1.958c-0.616,0-1.518,0.726-2.332,1.87l-1.847,7.279H104.333z"/>
		<path fill="#06080A" d="M124.328,387.913c-0.241,0.902,0.133,1.232,0.462,1.232c0.374,0,0.857-0.198,1.518-0.857l0.131,0.131
			c-1.187,1.254-2.221,1.759-3.122,1.759c-0.99,0-1.606-0.968-1.21-2.529l1.232-4.883c0.066-0.242,0.109-0.506,0.109-0.725
			c0.023-0.858-0.528-1.078-1.32-1.034l0.045-0.197l4.135-1.166l0.153,0.065l-0.681,2.596L124.328,387.913z M126.132,374.738
			c0.813,0,1.429,0.616,1.429,1.408c0,0.836-0.792,1.54-1.628,1.54c-0.88,0-1.408-0.616-1.408-1.452
			C124.526,375.42,125.296,374.738,126.132,374.738z"/>
		<path fill="#06080A" d="M128.133,389.848l1.826-7.082c0.066-0.242,0.109-0.506,0.109-0.725c0.023-0.858-0.528-1.078-1.32-1.034
			l0.045-0.197l4.047-1.166l0.153,0.065l-0.681,2.551c1.099-1.408,2.793-2.727,4.332-2.727c1.496,0,1.979,1.277,1.562,2.772
			l-1.541,5.608c-0.241,0.902,0.11,1.232,0.44,1.232c0.374,0,0.858-0.198,1.541-0.857l0.131,0.131
			c-1.209,1.254-2.265,1.759-3.167,1.759c-0.989,0-1.584-0.968-1.165-2.529l1.32-4.992c0.33-1.189,0.154-1.98-0.66-1.98
			c-0.792,0-1.847,0.77-2.815,2.002l-1.825,7.17H128.133z"/>
		<path fill="#06080A" d="M150.085,380.457h-0.902c-0.505,0-1.011-0.022-1.451-0.066c0.681,0.572,1.121,1.386,1.121,2.331
			c0,2.177-2.001,3.959-4.376,3.959c-0.704,0-1.342-0.153-1.87-0.44c-0.593,0.417-0.726,0.836-0.726,1.1
			c0,0.506,0.44,0.748,1.518,0.88l1.825,0.22c2.199,0.264,3.102,1.342,3.102,2.574c0,2.242-2.353,4.024-5.213,4.024
			c-2.353,0-3.913-0.945-3.913-2.398c0-1.408,1.253-2.33,2.594-2.485c-0.857-0.242-1.341-0.88-1.341-1.738
			c0-1.011,0.725-1.869,1.803-2.397c-0.792-0.549-1.254-1.429-1.254-2.463c0-2.155,2.046-4.003,4.333-4.003
			c0.681,0,1.342,0.153,1.847,0.44h2.991L150.085,380.457z M142.233,390.223c-0.747,0.264-1.584,0.945-1.584,2.551
			c0,0.968,0.573,2.001,2.639,2.001c1.386,0,3.167-0.572,3.167-2.617c0-1.013-0.637-1.453-1.737-1.606L142.233,390.223z
			 M143.135,383.888c0,1.737,0.681,2.441,1.43,2.441c0.901,0,2.001-1.078,2.001-3.959c0-1.803-0.66-2.529-1.43-2.529
			C143.487,379.842,143.135,382.59,143.135,383.888z"/>
		<path fill="#06080A" d="M153.607,388.661c0-0.594,0.418-1.056,1.012-1.056c0.55,0,0.792,0.373,0.945,0.813
			c0.221,0.661,0.286,1.474,1.189,1.474c0.968,0,1.759-0.725,1.759-1.693c0-1.782-3.519-2.991-3.519-5.477
			c0-1.958,1.429-3.19,3.672-3.19c2.31,0,2.793,0.99,2.793,1.562c0,0.594-0.461,1.034-1.056,1.034c-0.549,0-0.792-0.352-0.923-0.77
			c-0.221-0.637-0.198-1.474-1.078-1.474c-0.88,0-1.694,0.44-1.694,1.65c0,1.979,3.805,3.058,3.805,5.586
			c0,1.276-1.297,3.123-4.091,3.123C154.091,390.244,153.607,389.255,153.607,388.661z"/>
		<path fill="#06080A" d="M162.802,385.889c0-3.496,2.661-6.357,5.41-6.357c2.463,0,4.047,1.847,4.047,4.356
			c0,3.474-2.727,6.356-5.52,6.356C164.429,390.244,162.802,388.397,162.802,385.889z M166.672,389.826
			c2.287,0,3.167-4.816,3.167-6.641c0-1.892-0.506-3.212-1.54-3.212c-2.089,0-3.19,4.135-3.19,6.643
			C165.11,388.463,165.617,389.826,166.672,389.826z"/>
		<path fill="#06080A" d="M174.02,385.889c0-3.496,2.662-6.357,5.41-6.357c2.463,0,4.047,1.847,4.047,4.356
			c0,3.474-2.727,6.356-5.521,6.356C175.648,390.244,174.02,388.397,174.02,385.889z M177.891,389.826
			c2.287,0,3.167-4.816,3.167-6.641c0-1.892-0.505-3.212-1.54-3.212c-2.09,0-3.189,4.135-3.189,6.643
			C176.33,388.463,176.836,389.826,177.891,389.826z"/>
		<path fill="#06080A" d="M185.13,389.848l1.825-7.082c0.065-0.242,0.11-0.506,0.11-0.725c0.021-0.858-0.528-1.078-1.32-1.034
			l0.043-0.197l4.047-1.166l0.154,0.065l-0.682,2.551c1.101-1.408,2.794-2.727,4.333-2.727c1.496,0,1.979,1.277,1.561,2.772
			l-1.539,5.608c-0.242,0.902,0.109,1.232,0.44,1.232c0.373,0,0.857-0.198,1.539-0.857l0.133,0.131
			c-1.21,1.254-2.266,1.759-3.167,1.759c-0.99,0-1.584-0.968-1.166-2.529l1.32-4.992c0.329-1.189,0.153-1.98-0.66-1.98
			c-0.792,0-1.847,0.77-2.815,2.002l-1.826,7.17H185.13z"/>
	</g>
	<g>
		<g>
			<path fill="#06080A" d="M204.438,261.761v-17.669c0-2.106,0.58-3.693,3.082-3.815v-0.275h-6.775v0.275
				c2.502,0.122,3.082,1.709,3.082,3.815V255.2l-11.322-15.197h-5.981v0.275c2.533,0.122,3.692,2.197,3.692,4.883v11.962
				c0,2.96-1.465,3.876-3.387,3.967v0.275h7.843v-0.275c-2.594-0.122-3.845-1.709-3.845-3.815v-13l13.061,17.486H204.438z
				 M171.694,240.521h2.808c2.624,0,5.615,1.282,7.263,4.669h0.427l-0.977-5.188h-15.869v0.275c1.282,0.122,2.533,0.641,2.533,2.746
				v15.319c0,2.106-1.251,2.624-2.533,2.746v0.275h16.387l1.068-6.317h-0.458c-0.977,3.815-4.73,5.798-8.117,5.798h-2.533v-10.589
				h1.892c3.021,0,4.883,0.793,5.127,3.57h0.397v-7.69h-0.397c-0.244,2.777-2.106,3.57-5.127,3.57h-1.892V240.521z M150.15,240.521
				c3.754,0,5.249,2.106,5.249,5.585c0,3.662-1.831,5.737-5.585,5.737h-1.282v-11.322H150.15z M156.161,261.364h5.829v-0.275
				c-1.16-0.092-2.533-1.19-3.57-2.93l-3.754-6.317c2.991-0.977,4.608-3.143,4.608-5.89c0-3.235-2.502-5.951-8.148-5.951h-8.941
				v0.275c1.282,0.122,2.533,0.61,2.533,2.716v15.35c0,2.106-1.251,2.624-2.533,2.746v0.275h8.88v-0.275
				c-1.282-0.122-2.533-0.641-2.533-2.746v-5.951h2.38h0.092L156.161,261.364z M126.914,240.521c3.754,0,5.249,2.106,5.249,5.585
				c0,3.662-1.831,5.737-5.585,5.737h-1.282v-11.322H126.914z M132.926,261.364h5.829v-0.275c-1.16-0.092-2.533-1.19-3.57-2.93
				l-3.754-6.317c2.991-0.977,4.608-3.143,4.608-5.89c0-3.235-2.502-5.951-8.148-5.951h-8.941v0.275
				c1.282,0.122,2.533,0.61,2.533,2.716v15.35c0,2.106-1.251,2.624-2.533,2.746v0.275h8.88v-0.275
				c-1.282-0.122-2.533-0.641-2.533-2.746v-5.951h2.38h0.092L132.926,261.364z M103.813,244.824l3.509,9.887h-7.202L103.813,244.824
				z M108.36,257.58c0.885,2.533-0.092,3.418-1.556,3.509v0.275h8.85v-0.275c-1.465-0.092-2.319-1.19-3.082-3.265l-6.836-18.218
				h-0.519l-6.836,18.157c-0.763,2.075-1.892,3.204-3.784,3.326v0.275h6.714v-0.275c-2.35-0.122-3.082-1.282-2.35-3.296l0.915-2.472
				h7.66L108.36,257.58z M75.768,240.277v-0.275h-8.606v0.275c1.465,0.092,2.289,1.221,3.021,3.265l6.653,18.218h0.549l4.822-13.916
				l4.852,13.916h0.549l5.676-18.157c0.671-2.136,1.923-3.204,3.815-3.326v-0.275h-6.714v0.275c2.35,0.122,2.899,1.221,2.258,3.296
				l-3.815,12.329l-3.998-12.115c-0.854-2.533,0.183-3.418,1.617-3.509v-0.275h-8.606v0.275c1.404,0.092,2.167,1.221,2.869,3.265
				l1.16,3.357l-3.174,9.247l-4.394-12.359C73.541,241.254,74.456,240.369,75.768,240.277"/>
		</g>
		<g>
			<g>
				<path fill="#06080A" d="M129.337,14.482H98.423c-12.745,0-17.49,5.695-19.389,12.609H77L82.83,2.143h53.828v3.932
					c-16.813,28.202-29.288,51.93-28.067,90.979h-18.44v-1.491C93.678,65.597,110.219,36.989,129.337,14.482z"/>
			</g>
			<g>
				<path fill="#06080A" d="M193.328,61.78h-30.915c-12.745,0-17.49,5.695-19.389,12.609h-2.034l5.831-24.948h53.828v3.932
					c-16.813,28.202-29.288,51.93-28.067,90.979h-18.44v-1.491C157.667,112.897,174.209,84.288,193.328,61.78z"/>
			</g>
		</g>
		<rect x="115.242" y="188.748" fill="#06080A" width="47.164" height="1.048"/>
	</g>
</g>
</svg>
