<?xml version="1.0" encoding="utf-8"?>
<!-- Generator: Adobe Illustrator 17.0.2, SVG Export Plug-In . SVG Version: 6.00 Build 0)  -->
<!DOCTYPE svg PUBLIC "-//W3C//DTD SVG 1.1//EN" "http://www.w3.org/Graphics/SVG/1.1/DTD/svg11.dtd">
<svg version="1.1" id="Layer_1" xmlns="http://www.w3.org/2000/svg" xmlns:xlink="http://www.w3.org/1999/xlink" x="0px" y="0px"
	 width="279px" height="400px" viewBox="0 0 279 400" enable-background="new 0 0 279 400" xml:space="preserve">
<g>
	<path fill="#2F343B" d="M0.783,351.922v-0.254c1.185-0.113,2.341-0.593,2.341-2.539v-14.159c0-1.946-1.157-2.425-2.341-2.539
		v-0.254h14.863l0.705,5.839h-0.423c-0.903-3.526-4.09-5.387-7.22-5.387H6.649v8.686h1.326c2.793,0,4.513-0.762,4.738-3.327h0.367
		v7.107h-0.367c-0.226-2.566-1.946-3.327-4.738-3.327H6.649v7.361c0,1.946,1.157,2.426,2.341,2.539v0.254H0.783z"/>
	<path fill="#2F343B" d="M28.676,348.989c0,1.861,0.818,2.453,2.228,2.397v0.255l-4.992,0.648l-0.226-0.085v-2.171
		c-1.326,1.636-2.82,2.398-4.371,2.398c-2.003,0-3.244-1.157-3.244-3.441v-6.149c0-1.861-0.959-2.313-2.228-2.257v-0.254
		l5.077-1.495l0.225,0.085v9.053c0,2.256,0.677,3.187,1.975,3.187c0.789,0,1.721-0.535,2.482-1.495v-6.825
		c0-1.861-0.959-2.313-2.228-2.257v-0.254l5.077-1.495l0.225,0.085V348.989z"/>
	<path fill="#2F343B" d="M36.854,330.77l0.226,0.085v18.417c0,1.861,1.1,2.313,2.228,2.398v0.254h-7.531v-0.254
		c1.128-0.085,2.228-0.536,2.228-2.398v-14.497c0-1.861-0.959-2.313-2.228-2.256v-0.255L36.854,330.77z"/>
	<path fill="#2F343B" d="M45.399,330.77l0.226,0.085v18.417c0,1.861,1.1,2.313,2.228,2.398v0.254h-7.531v-0.254
		c1.128-0.085,2.228-0.536,2.228-2.398v-14.497c0-1.861-0.959-2.313-2.228-2.256v-0.255L45.399,330.77z"/>
	<path fill="#2F343B" d="M54.085,351.922v-0.254c1.185-0.113,2.341-0.593,2.341-2.539v-14.159c0-1.946-1.157-2.425-2.341-2.539
		v-0.254h14.863l0.705,5.839h-0.423c-0.903-3.526-4.09-5.387-7.22-5.387h-2.059v8.686h1.326c2.793,0,4.513-0.762,4.738-3.327h0.367
		v7.107h-0.367c-0.226-2.566-1.946-3.327-4.738-3.327h-1.326v7.361c0,1.946,1.157,2.426,2.341,2.539v0.254H54.085z"/>
	<path fill="#2F343B" d="M75.773,330.77l0.226,0.085v18.417c0,1.861,1.1,2.313,2.228,2.398v0.254h-7.531v-0.254
		c1.128-0.085,2.228-0.536,2.228-2.398v-14.497c0-1.861-0.959-2.313-2.228-2.256v-0.255L75.773,330.77z"/>
	<path fill="#2F343B" d="M79.581,345.633c0-3.835,2.905-6.91,6.43-6.91c3.836,0,6.43,2.962,6.43,6.798s-2.764,6.91-6.43,6.91
		C82.316,352.43,79.581,349.468,79.581,345.633z M86.011,352.035c1.466,0,2.877-1.466,2.877-6.402c0-3.835-1.128-6.543-2.989-6.515
		c-1.438,0.028-2.82,1.608-2.82,6.402C83.078,349.299,84.206,352.035,86.011,352.035z"/>
	<path fill="#2F343B" d="M94.133,345.633c0-3.835,2.905-6.91,6.43-6.91c3.836,0,6.43,2.962,6.43,6.798s-2.764,6.91-6.43,6.91
		C96.869,352.43,94.133,349.468,94.133,345.633z M100.563,352.035c1.466,0,2.877-1.466,2.877-6.402c0-3.835-1.128-6.543-2.99-6.515
		c-1.438,0.028-2.82,1.608-2.82,6.402C97.631,349.299,98.758,352.035,100.563,352.035z"/>
	<path fill="#2F343B" d="M113.509,338.835l0.225,0.085v3.327c1.072-2.143,2.567-3.582,3.836-3.582c1.043,0,1.72,0.79,1.72,1.636
		c0,0.902-0.564,1.749-1.495,1.749c-1.1,0-1.523-1.128-2.256-1.128c-0.62,0-1.269,0.818-1.749,1.946v6.261
		c0,1.861,0.733,2.482,1.861,2.567v0.225h-7.164v-0.254c1.128-0.085,2.228-0.536,2.228-2.398v-6.43c0-1.805-0.931-2.341-2.256-2.257
		v-0.254L113.509,338.835z"/>
	<path fill="#2F343B" d="M133.42,332.179v0.254c-1.185,0.114-2.341,0.593-2.341,2.539v16.499h2.341c3.131,0,6.599-1.861,7.501-5.386
		h0.424l-0.987,5.838h-15.146v-0.254c1.185-0.113,2.341-0.593,2.341-2.539v-14.159c0-1.946-1.157-2.425-2.341-2.539v-0.254H133.42z"
		/>
	<path fill="#2F343B" d="M154.346,348.989c0,1.861,0.818,2.453,2.228,2.397v0.255l-4.992,0.648l-0.225-0.085v-2.171
		c-1.326,1.636-2.82,2.398-4.372,2.398c-2.002,0-3.244-1.157-3.244-3.441v-6.149c0-1.861-0.959-2.313-2.228-2.257v-0.254
		l5.076-1.495l0.226,0.085v9.053c0,2.256,0.676,3.187,1.974,3.187c0.79,0,1.721-0.535,2.482-1.495v-6.825
		c0-1.861-0.959-2.313-2.229-2.257v-0.254l5.077-1.495l0.225,0.085V348.989z"/>
	<path fill="#2F343B" d="M164.922,344.42l1.523-2.116c1.015-1.438,0.761-2.538-0.677-2.651v-0.225h4.766v0.225
		c-1.58,0.114-2.567,1.354-3.582,2.764l-1.749,2.37l3.441,4.625c1.212,1.636,1.523,2.059,2.454,2.285v0.225h-6.572v-0.225
		c1.073-0.056,1.692-0.733,0.536-2.313l-2.115-2.848l-1.777,2.51c-0.959,1.353-0.593,2.539,1.241,2.651v0.225h-5.471v-0.225
		c1.636-0.113,2.708-1.354,3.723-2.764l2.002-2.792l-3.356-4.513c-1.129-1.523-1.495-1.777-2.257-1.975v-0.225h6.571v0.225
		c-1.212,0.086-1.494,0.931-0.479,2.313L164.922,344.42z"/>
	<path fill="#2F343B" d="M183.733,348.989c0,1.861,0.818,2.453,2.228,2.397v0.255l-4.992,0.648l-0.225-0.085v-2.171
		c-1.326,1.636-2.82,2.398-4.372,2.398c-2.002,0-3.244-1.157-3.244-3.441v-6.149c0-1.861-0.959-2.313-2.228-2.257v-0.254
		l5.076-1.495l0.226,0.085v9.053c0,2.256,0.676,3.187,1.974,3.187c0.79,0,1.721-0.535,2.482-1.495v-6.825
		c0-1.861-0.959-2.313-2.229-2.257v-0.254l5.077-1.495l0.225,0.085V348.989z"/>
	<path fill="#2F343B" d="M191.995,338.835l0.226,0.085v3.327c1.072-2.143,2.566-3.582,3.835-3.582c1.043,0,1.721,0.79,1.721,1.636
		c0,0.902-0.564,1.749-1.495,1.749c-1.1,0-1.523-1.128-2.256-1.128c-0.621,0-1.27,0.818-1.749,1.946v6.261
		c0,1.861,0.733,2.482,1.861,2.567v0.225h-7.164v-0.254c1.128-0.085,2.228-0.536,2.228-2.398v-6.43c0-1.805-0.931-2.341-2.256-2.257
		v-0.254L191.995,338.835z"/>
	<path fill="#2F343B" d="M204.432,354.996c-0.987,2.257-2.736,3.497-4.315,3.497c-1.241,0-2.341-0.818-2.341-2.199
		c0-1.072,0.762-1.692,1.551-1.692c1.833,0,1.551,2.454,2.623,2.454c0.705,0,1.551-1.101,2.059-2.285l0.987-2.256l-4.371-10.154
		c-0.705-1.635-1.242-2.622-2.369-2.708v-0.225h7.22v0.225c-1.439,0.086-2.143,1.129-1.411,2.906l2.567,6.318l2.848-6.572
		c0.677-1.607,0.028-2.538-1.861-2.651v-0.225h5.077v0.225c-1.58,0.114-2.03,1.185-2.792,2.906L204.432,354.996z"/>
	<path fill="#2F343B" d="M226.627,332.179v0.254c-1.185,0.114-2.341,0.593-2.341,2.539v16.499h2.341c3.13,0,6.599-1.861,7.502-5.386
		h0.424l-0.987,5.838H218.42v-0.254c1.184-0.113,2.34-0.593,2.34-2.539v-14.159c0-1.946-1.156-2.425-2.34-2.539v-0.254H226.627z"/>
	<path fill="#2F343B" d="M235.764,345.633c0-3.835,2.905-6.91,6.43-6.91c3.835,0,6.43,2.962,6.43,6.798s-2.764,6.91-6.43,6.91
		C238.5,352.43,235.764,349.468,235.764,345.633z M242.195,352.035c1.467,0,2.877-1.466,2.877-6.402
		c0-3.835-1.128-6.543-2.989-6.515c-1.439,0.028-2.82,1.608-2.82,6.402C239.262,349.299,240.39,352.035,242.195,352.035z"/>
	<path fill="#2F343B" d="M259.736,334.069c0,0.987-0.648,1.692-1.466,1.692c-0.677,0-1.467-0.564-1.467-1.495
		c0-0.563,0.282-1.072,0.282-1.494c0-0.339-0.282-0.536-0.62-0.536c-0.762,0-1.495,0.846-1.495,2.989
		c0,1.242,0.254,2.821,0.254,4.146v0.056h3.047v0.452h-3.047v9.391c0,1.861,1.101,2.313,2.229,2.398v0.254h-7.53v-0.254
		c1.128-0.085,2.228-0.536,2.228-2.398v-9.391h-2.228v-0.452h2.228v-1.833c0-4.287,2.454-5.81,4.682-5.81
		C258.636,331.785,259.736,332.8,259.736,334.069z"/>
	<path fill="#2F343B" d="M264.25,339.879v8.235c0,1.777,0.535,2.425,1.466,2.425c0.677,0,1.382-0.366,2.03-1.297l0.255,0.169
		c-1.298,2.229-2.877,3.018-4.146,3.018c-1.664,0-2.679-1.298-2.679-2.906v-9.645h-1.861v-0.283c2.03-0.648,3.977-3.412,4.541-5.669
		h0.395v5.5h3.412v0.452H264.25z"/>
	<path fill="#2F343B" d="M276.631,349.779c0-2.116-3.357-2.398-5.415-3.977c-0.874-0.677-1.58-1.58-1.58-2.961
		c0-2.087,1.326-4.118,4.456-4.118c1.918,0,3.159,0.424,4.4,1.157l-0.903,2.82l-0.197-0.028c-0.339-2.285-1.89-3.469-3.61-3.469
		c-1.354,0-2.285,0.733-2.285,2.002c0,2.426,3.751,2.623,5.951,4.259c0.874,0.649,1.551,1.551,1.551,2.905
		c0,1.692-1.58,4.062-4.936,4.062c-1.495,0-3.13-0.395-4.738-1.213l0.959-3.357l0.197,0.057c0.225,2.115,1.128,4.033,3.61,4.033
		C276.038,351.95,276.631,350.963,276.631,349.779z"/>
	<path fill="#2F343B" d="M89.16,388.21c0-0.548,0.373-0.987,0.987-0.987c0.504,0,0.789,0.307,0.943,0.768
		c0.22,0.635,0.198,1.491,1.25,1.491c0.921,0,1.799-0.68,1.799-1.623c0-1.842-3.378-3.071-3.378-5.638
		c0-1.469,1.272-2.961,3.729-2.961c1.776,0,2.676,0.812,2.676,1.58c0,0.527-0.395,0.987-0.965,0.987c-0.46,0-0.79-0.285-0.965-0.767
		c-0.22-0.614-0.197-1.404-1.25-1.404c-0.921,0-1.579,0.57-1.579,1.47c0,2.062,3.597,3.115,3.597,5.68
		c0,1.646-1.47,3.027-3.926,3.027C90.234,389.833,89.16,389.087,89.16,388.21z"/>
	<path fill="#2F343B" d="M100.171,394.615h-5.55l0.088-0.197c0.855-0.066,1.755-0.417,2.149-1.864l2.786-10.397
		c0.351-1.294-0.088-1.821-1.228-1.755l0.044-0.198l4.036-0.855l0.153,0.065l-0.57,2.04c1.645-1.711,2.764-2.194,3.729-2.194
		c1.36,0,2.478,0.943,2.478,3.093c0,3.795-3.663,7.48-6.448,7.48c-0.9,0-1.47-0.351-1.843-0.834l-0.943,3.554
		c-0.241,0.987-0.132,1.755,1.184,1.864L100.171,394.615z M105.787,383.011c0-1.491-0.57-2.105-1.492-2.105
		c-0.724,0-1.492,0.373-2.391,1.25l-1.184,4.277c-0.548,1.953,0.066,2.983,1.162,3.006
		C103.878,389.482,105.787,386.148,105.787,383.011z"/>
	<path fill="#2F343B" d="M109.428,389.526l2.018-7.37c0.351-1.294-0.088-1.821-1.228-1.755l0.044-0.198l4.036-0.855l0.153,0.065
		l-0.965,3.466c1.426-2.435,3.027-3.664,4.102-3.664c0.724,0,1.206,0.505,1.206,1.229c0,0.745-0.57,1.381-1.36,1.381
		c-0.79,0-0.943-0.746-1.623-0.746c-0.614,0-1.316,0.57-2.588,2.764l-1.535,5.681H109.428z"/>
	<path fill="#2F343B" d="M120.483,382.156c0.351-1.294-0.066-1.821-1.206-1.755l0.044-0.198l4.036-0.855l0.153,0.065l-0.746,2.699
		l-1.338,4.957c-0.285,1.075-0.154,1.492,0.241,1.492c0.417,0,1.119-0.505,1.842-1.448l0.219,0.176
		c-1.162,1.536-2.588,2.413-3.575,2.413c-0.9,0-1.535-0.68-1.009-2.633L120.483,382.156z M123.072,374.523
		c0.834,0,1.448,0.614,1.448,1.404c0,0.877-0.746,1.557-1.579,1.557s-1.448-0.636-1.448-1.426
		C121.492,375.181,122.238,374.523,123.072,374.523z"/>
	<path fill="#2F343B" d="M131.429,387.069l1.535-5.176c0.241-0.79,0-1.229-0.527-1.229c-0.68,0-1.886,0.725-3.51,2.61l-1.711,6.252
		h-2.259l2.018-7.37c0.351-1.294-0.088-1.821-1.228-1.755l0.044-0.198l4.036-0.855l0.153,0.065l-0.855,3.159
		c1.93-2.171,3.707-3.313,4.87-3.313c1.207,0,1.733,1.185,1.25,2.786l-1.557,5.023c-0.329,1.053-0.153,1.492,0.241,1.492
		c0.417,0,1.141-0.505,1.842-1.448l0.219,0.176c-1.162,1.536-2.566,2.413-3.575,2.413
		C131.539,389.702,130.837,389.022,131.429,387.069z"/>
	<path fill="#2F343B" d="M140.137,394.747c-3.246,0-5.023-1.097-5.023-2.523c0-1.097,1.184-2.128,2.961-2.412
		c-0.768-0.373-1.119-1.009-1.119-1.689c0-1.053,0.834-1.864,2.237-2.303c-0.943-0.57-1.492-1.491-1.492-2.588
		c0-2.281,2.281-3.971,4.606-3.971c0.635,0,1.272,0.132,1.821,0.373h3.223l-0.131,0.46h-0.921c-0.504,0-1.031-0.021-1.47-0.065
		c0.746,0.548,1.229,1.36,1.229,2.347c0,2.236-2.129,3.992-4.651,3.992c-0.724,0-1.36-0.132-1.886-0.373
		c-0.767,0.329-1.053,0.724-1.053,1.118c0,0.373,0.263,0.724,1.338,0.878l2.764,0.417c2.237,0.328,3.18,1.228,3.18,2.588
		C145.752,393.08,143.34,394.747,140.137,394.747z M144.02,392.202c0-0.856-0.659-1.449-1.733-1.623l-3.399-0.527
		c0,0,0,0-0.241-0.044c-1.272,0.417-1.799,1.207-1.799,2.237c0,1.557,1.272,2.194,3.29,2.194
		C142.484,394.44,144.02,393.474,144.02,392.202z M142.243,379.568c-1.36,0-2.347,2.083-2.347,4.233
		c0,1.514,0.636,2.194,1.513,2.194c1.25,0,2.281-1.864,2.281-4.211C143.69,380.357,143.186,379.568,142.243,379.568z"/>
	<path fill="#2F343B" d="M150.424,389.526l-0.131-0.417l3.904-3.554c2.04-1.864,2.501-3.443,2.501-4.386
		c0-1.25-0.768-1.909-1.974-1.909c-1.119,0-2.084,0.615-2.523,1.426l-0.263-0.087c0.505-1.514,2.15-2.633,4.102-2.633
		c2.062,0,3.334,1.009,3.334,2.37c0,1.141-0.921,2.237-3.597,4.606l-2.808,2.478h3.05c1.557,0,2.654-0.57,3.399-2.018h0.329
		l-1.58,4.124H150.424z"/>
	<path fill="#2F343B" d="M167.248,377.966c2.698,0,4.497,2.15,4.497,4.892c0,3.531-2.742,6.975-6.011,6.975
		c-2.698,0-4.496-2.171-4.496-4.913C161.239,381.41,163.98,377.966,167.248,377.966z M167.358,378.339
		c-2.325,0-3.619,4.518-3.619,7.546c0,2.084,0.592,3.575,1.908,3.575c2.281,0,3.597-4.518,3.597-7.567
		C169.245,379.853,168.631,378.339,167.358,378.339z"/>
	<path fill="#2F343B" d="M171.746,389.329c0.943-0.066,1.908-0.417,2.281-1.864l1.381-5.572c0.395-1.58-0.021-1.908-1.667-1.755
		l0.044-0.198l4.717-2.018l0.131,0.066l-2.347,9.476c-0.372,1.448,0.439,1.798,1.339,1.864l-0.045,0.197h-5.878L171.746,389.329z"/>
	<path fill="#2F343B" d="M186.639,388.89l-0.921,3.707h-2.26l0.921-3.707h-5.637l-0.066-0.548l8.84-10.287h1.843l-2.237,8.971
		c1.514-0.087,2.237-0.614,2.742-1.688h0.307l-1.207,3.553H186.639z M184.841,387.048l1.821-7.305l-6.295,7.305H184.841z"/>
</g>
<g>
	<g>
		<g>
			<path fill="#06080A" d="M204.438,261.761v-17.669c0-2.106,0.58-3.693,3.082-3.815v-0.275h-6.775v0.275
				c2.502,0.122,3.082,1.709,3.082,3.815V255.2l-11.322-15.197h-5.981v0.275c2.533,0.122,3.692,2.197,3.692,4.883v11.962
				c0,2.96-1.465,3.876-3.387,3.967v0.275h7.843v-0.275c-2.594-0.122-3.845-1.709-3.845-3.815v-13l13.061,17.486H204.438z
				 M171.694,240.521h2.808c2.624,0,5.615,1.282,7.263,4.669h0.427l-0.977-5.188h-15.869v0.275c1.282,0.122,2.533,0.641,2.533,2.746
				v15.319c0,2.106-1.251,2.624-2.533,2.746v0.275h16.387l1.068-6.317h-0.458c-0.977,3.815-4.73,5.798-8.117,5.798h-2.533v-10.589
				h1.892c3.021,0,4.883,0.793,5.127,3.57h0.397v-7.69h-0.397c-0.244,2.777-2.106,3.57-5.127,3.57h-1.892v-9.184H171.694z
				 M150.15,240.521c3.754,0,5.249,2.106,5.249,5.585c0,3.662-1.831,5.737-5.585,5.737h-1.282v-11.322H150.15z M156.161,261.364
				h5.829v-0.275c-1.16-0.092-2.533-1.19-3.57-2.93l-3.754-6.317c2.991-0.977,4.608-3.143,4.608-5.89
				c0-3.235-2.502-5.951-8.148-5.951h-8.941v0.275c1.282,0.122,2.533,0.61,2.533,2.716v15.35c0,2.106-1.251,2.624-2.533,2.746v0.275
				h8.88v-0.275c-1.282-0.122-2.533-0.641-2.533-2.746v-5.951h2.38h0.092L156.161,261.364z M126.914,240.521
				c3.754,0,5.249,2.106,5.249,5.585c0,3.662-1.831,5.737-5.585,5.737h-1.282v-11.322H126.914z M132.926,261.364h5.829v-0.275
				c-1.16-0.092-2.533-1.19-3.57-2.93l-3.754-6.317c2.991-0.977,4.608-3.143,4.608-5.89c0-3.235-2.502-5.951-8.148-5.951h-8.941
				v0.275c1.282,0.122,2.533,0.61,2.533,2.716v15.35c0,2.106-1.251,2.624-2.533,2.746v0.275h8.88v-0.275
				c-1.282-0.122-2.533-0.641-2.533-2.746v-5.951h2.38h0.092L132.926,261.364z M103.813,244.824l3.509,9.887h-7.202L103.813,244.824
				z M108.36,257.58c0.885,2.533-0.092,3.418-1.556,3.509v0.275h8.85v-0.275c-1.465-0.092-2.319-1.19-3.082-3.265l-6.836-18.218
				h-0.519l-6.836,18.157c-0.763,2.075-1.892,3.204-3.784,3.326v0.275h6.714v-0.275c-2.35-0.122-3.082-1.282-2.35-3.296l0.915-2.472
				h7.66L108.36,257.58z M75.768,240.277v-0.275h-8.606v0.275c1.465,0.092,2.289,1.221,3.021,3.265l6.653,18.218h0.549l4.822-13.916
				l4.852,13.916h0.549l5.676-18.157c0.671-2.136,1.923-3.204,3.815-3.326v-0.275h-6.714v0.275c2.35,0.122,2.899,1.221,2.258,3.296
				l-3.815,12.329l-3.998-12.115c-0.854-2.533,0.183-3.418,1.617-3.509v-0.275h-8.606v0.275c1.404,0.092,2.167,1.221,2.869,3.265
				l1.16,3.357l-3.174,9.247l-4.394-12.359C73.541,241.254,74.456,240.369,75.768,240.277"/>
		</g>
		<g>
			<g>
				<path fill="#06080A" d="M129.337,14.482H98.423c-12.745,0-17.49,5.695-19.389,12.609H77l5.83-24.948h53.828v3.932
					c-16.813,28.202-29.288,51.93-28.067,90.979h-18.44v-1.491C93.678,65.597,110.219,36.989,129.337,14.482z"/>
			</g>
			<g>
				<path fill="#06080A" d="M193.328,61.78h-30.915c-12.745,0-17.49,5.695-19.389,12.609h-2.034l5.831-24.948h53.828v3.932
					c-16.813,28.202-29.288,51.93-28.067,90.979h-18.44v-1.491C157.667,112.897,174.209,84.288,193.328,61.78z"/>
			</g>
		</g>
		<rect x="115.242" y="188.748" fill="#06080A" width="47.164" height="1.048"/>
	</g>
</g>
</svg>
